<svg width="32" height="30" viewBox="0 0 32 30" fill="none" xmlns="http://www.w3.org/2000/svg">
<path d="M11 30C12.1046 30 13 29.1046 13 28C13 26.8954 12.1046 26 11 26C9.89543 26 9 26.8954 9 28C9 29.1046 9.89543 30 11 30Z" fill="#79b257"/>
<path d="M26 30C27.1046 30 28 29.1046 28 28C28 26.8954 27.1046 26 26 26C24.8954 26 24 26.8954 24 28C24 29.1046 24.8954 30 26 30Z" fill="#79b257"/>
<path d="M30.8704 5.45467H6.41663L5.51257 0.872933C5.46103 0.622819 5.32247 0.398508 5.12102 0.239048C4.91957 0.0795875 4.66799 -0.00492481 4.41006 0.000221929H0V2.182H3.506L7.7176 23.1271C7.76914 23.3772 7.9077 23.6015 8.10915 23.761C8.3106 23.9204 8.56219 24.0049 8.82011 23.9998H28.6654V21.818H9.72418L8.82011 17.4544H28.6654C28.9202 17.4606 29.1694 17.3792 29.3704 17.2241C29.5714 17.0689 29.7119 16.8496 29.7679 16.6036L31.9729 6.78555C32.0099 6.62369 32.009 6.45562 31.9704 6.29414C31.9318 6.13266 31.8565 5.98202 31.7502 5.85368C31.6438 5.72535 31.5093 5.6227 31.3569 5.55356C31.2044 5.48441 31.0381 5.45059 30.8704 5.45467ZM27.7834 15.2727H8.40116L6.85764 7.63644H29.4923L27.7834 15.2727Z" fill="#79b257"/>
</svg>

